<?xml version="1.0" encoding="utf-8"?>
<!-- Generator: Adobe Illustrator 22.0.1, SVG Export Plug-In . SVG Version: 6.00 Build 0)  -->
<svg version="1.1" id="Calque_1" xmlns="http://www.w3.org/2000/svg" xmlns:xlink="http://www.w3.org/1999/xlink" x="0px" y="0px"
	 viewBox="0 0 100 100" style="enable-background:new 0 0 100 100;" xml:space="preserve">
<style type="text/css">
	.st0{fill:none;stroke:#000000;stroke-miterlimit:10;}
</style>
<path class="st0" d="M87.5,51.4c0-4.9-4.4-8.4-8.5-10c-5.4-2.1-3.6,0.1-4.7-3.9c-1.8-6.1,0.1-15.4,0.1-21.8c0-3.4,2.1-17.9-3.3-15.6
	c-3,1.3-4.8,11.6-5.4,14.1c-1.2,5.7-1.8,11.6-1.8,17.4c-2.4-7-4.9-14.1-7.3-21.2c-0.6-1.7-1.3-6.5-2.7-7.8
	c-5.3-4.8-4.5,8.8-4.3,11.3c0.5,8.1,2.5,16.1,5.5,23.7c2.1,5.4,3.1,5.3,0.1,9.7c-1.1,1.7-2,3.6-2.8,5.6c-1.6,4.2-0.7,2.8-4.4,3.3
	c-7.6,1-13.6,0.5-20.1,5.4c-5.8,4.4-9.7,11.2-10.3,18.5c-9.4-1.9-3.5,14.2,0.8,17.1c3.3,2.3,6.2,2.1,9.8,2.1c11.1,0.1,22.2,0,33.2,0
	c6,0,15,2.1,20.2,0c4.3-1.7,2.8-6.4,0.3-9.4c-0.8-0.9-3.7-2-4.1-2.8c-0.5-1.1,1.9-6.3,2.2-8c0.5-3,0.8-6.1,0.8-9.1
	c0-1.3-1.3-8.1-0.8-9.1c0.6-1.3,4.4-2.6,5.5-4C86.7,55.3,87.5,53.4,87.5,51.4z"/>
</svg>
