<?xml version="1.0" encoding="utf-8"?>
<!-- Generator: Adobe Illustrator 22.0.1, SVG Export Plug-In . SVG Version: 6.00 Build 0)  -->
<svg version="1.1" id="Calque_1" xmlns="http://www.w3.org/2000/svg" xmlns:xlink="http://www.w3.org/1999/xlink" x="0px" y="0px"
	 viewBox="0 0 100 100" style="enable-background:new 0 0 100 100;" xml:space="preserve">
<style type="text/css">
	.st0{fill:none;stroke:#000000;}
</style>
<path class="st0" d="M15.1,46.4c10.4-4.4,23-5.1,34-5.3c8.4-0.2,16.8,0.3,25.1,1.7c4.4,0.6,8.6,1.6,12.9,2.8
	c2.3,0.6,4.6,1.3,6.8,2.2c1.6,0.5,4.9,1.2,5.7,2.6c-0.3,0.4-2.9-0.4-3.3-0.5c-2.6-0.6-5.4-1-8.1-1.4c-8.4-1.4-16.9-2.1-25.4-2
	C53,46.5,43,47.9,34,51.7c-4.5,1.9-8.9,4.4-12.7,7.7c-4,3.6-7.6,8-13.3,9c-5.7,0.9-8.9-4.1-7-9.3C3.1,53,9.6,48.8,15.1,46.4z"/>
</svg>
