<?xml version="1.0" encoding="UTF-8" standalone="no"?>
<!-- Created with Inkscape (http://www.inkscape.org/) -->

<svg
   xmlns:dc="http://purl.org/dc/elements/1.1/"
   xmlns:cc="http://creativecommons.org/ns#"
   xmlns:rdf="http://www.w3.org/1999/02/22-rdf-syntax-ns#"
   xmlns:svg="http://www.w3.org/2000/svg"
   xmlns="http://www.w3.org/2000/svg"
   xmlns:sodipodi="http://sodipodi.sourceforge.net/DTD/sodipodi-0.dtd"
   xmlns:inkscape="http://www.inkscape.org/namespaces/inkscape"
   width="1384.4114"
   height="1567.0587"
   id="svg2"
   sodipodi:version="0.32"
   inkscape:version="0.48.2 r9819"
   sodipodi:docname="examples_of_airfoils_en.svg"
   inkscape:output_extension="org.inkscape.output.svg.inkscape"
   version="1.0">
  <defs
     id="defs4">
    <inkscape:path-effect
       effect="spiro"
       id="path-effect3144"
       is_visible="true" />
  </defs>
  <sodipodi:namedview
     id="base"
     pagecolor="#ffffff"
     bordercolor="#666666"
     borderopacity="1.0"
     inkscape:pageopacity="0.0"
     inkscape:pageshadow="2"
     inkscape:zoom="0.2667536"
     inkscape:cx="-73.837199"
     inkscape:cy="745.63489"
     inkscape:document-units="px"
     inkscape:current-layer="layer1"
     inkscape:window-width="1680"
     inkscape:window-height="1026"
     inkscape:window-x="0"
     inkscape:window-y="24"
     width="1000px"
     height="450px"
     showgrid="false"
     inkscape:snap-bbox="true"
     inkscape:object-nodes="true"
     inkscape:window-maximized="1"
     inkscape:snap-bbox-midpoints="true"
     inkscape:snap-object-midpoints="true"
     inkscape:snap-smooth-nodes="true"
     inkscape:object-paths="true"
     fit-margin-top="50"
     fit-margin-left="50"
     fit-margin-right="50"
     fit-margin-bottom="50"
     inkscape:showpageshadow="false"
     inkscape:snap-global="true"
     showguides="true"
     inkscape:guide-bbox="true"
     borderlayer="false">
    <inkscape:grid
       type="xygrid"
       id="grid3089"
       empspacing="5"
       visible="true"
       enabled="true"
       snapvisiblegridlinesonly="true" />
  </sodipodi:namedview>
  <metadata
     id="metadata7">
    <rdf:RDF>
      <cc:Work
         rdf:about="">
        <dc:format>image/svg+xml</dc:format>
        <dc:type
           rdf:resource="http://purl.org/dc/dcmitype/StillImage" />
        <dc:title />
      </cc:Work>
    </rdf:RDF>
  </metadata>
  <g
     inkscape:label="Calque 1"
     inkscape:groupmode="layer"
     id="layer1"
     transform="translate(-1276.6235,526.35014)">
    <path
       id="path3972"
       style="fill:#ebebeb;fill-opacity:1;stroke:#000000;stroke-width:0.99999934;stroke-linecap:butt;stroke-linejoin:miter;stroke-miterlimit:4;stroke-opacity:1;stroke-dasharray:none"
       d="m 1881.4409,-406.93228 c 14.7724,2.84203 44.6956,6.3809 44.6956,6.3809 l -0.6732,5.48039 c -191.4314,3.91267 -382.7657,9.82046 -574.1371,15.78602 -12.0771,-0.0781 -27.1779,-9.82962 -23.6754,-22.12461 19.2655,-67.62726 154.3221,-73.83924 163.4901,-73.63784 136.653,-7.79639 268.9773,44.11666 390.3,68.11514 z"
       inkscape:connector-curvature="0"
       sodipodi:nodetypes="ccccscc"
       inkscape:transform-center-x="314.00586"
       inkscape:transform-center-y="-28.988883" />
    <text
       xml:space="preserve"
       style="font-size:40px;font-style:italic;font-variant:normal;font-weight:normal;font-stretch:normal;text-indent:0;text-align:center;text-decoration:none;line-height:125%;letter-spacing:0px;word-spacing:0px;text-transform:none;direction:ltr;block-progression:tb;writing-mode:lr-tb;text-anchor:middle;color:#000000;fill:#000000;fill-opacity:1;fill-rule:nonzero;stroke:none;stroke-width:1px;marker:none;visibility:visible;display:inline;overflow:visible;enable-background:accumulate;font-family:Nimbus Roman No9 L;-inkscape-font-specification:Nimbus Roman No9 L Italic"
       x="1627.6962"
       y="-307.83826"
       id="text4068"
       sodipodi:linespacing="125%"><tspan
         sodipodi:role="line"
         id="tspan4070"
         x="1627.6962"
         y="-307.83826">Low-speed ULM (1 m)</tspan></text>
    <path
       inkscape:transform-center-y="-18.636854"
       inkscape:transform-center-x="299.99976"
       id="path3154"
       style="fill:#ebebeb;fill-opacity:1;fill-rule:evenodd;stroke:#000000;stroke-width:0.99999923;stroke-linecap:butt;stroke-linejoin:miter;stroke-miterlimit:4;stroke-opacity:1;stroke-dasharray:none"
       d="m 1926.1365,-123.77252 c -66.4555,-8.91009 -227.796,30.447751 -378.5512,37.64345 -79.7518,3.806643 -193.4274,-5.873925 -214.7534,-27.49038 -31.6642,-32.09509 75.0688,-66.48996 162.8851,-78.77302 90.3243,-12.63437 172.6084,-17.98859 430.4195,68.61995 z"
       sodipodi:nodetypes="csssc"
       inkscape:export-filename="/home/olivier/1&amp;0s/Desktop/airf.png"
       inkscape:export-xdpi="122.01"
       inkscape:export-ydpi="122.01"
       inkscape:connector-curvature="0" />
    <text
       sodipodi:linespacing="125%"
       id="text4072"
       y="-15.495665"
       x="1627.5361"
       style="font-size:40px;font-style:italic;font-variant:normal;font-weight:normal;font-stretch:normal;text-indent:0;text-align:center;text-decoration:none;line-height:125%;letter-spacing:0px;word-spacing:0px;text-transform:none;direction:ltr;block-progression:tb;writing-mode:lr-tb;text-anchor:middle;color:#000000;fill:#000000;fill-opacity:1;fill-rule:nonzero;stroke:none;stroke-width:1px;marker:none;visibility:visible;display:inline;overflow:visible;enable-background:accumulate;font-family:Nimbus Roman No9 L;-inkscape-font-specification:Nimbus Roman No9 L Italic"
       xml:space="preserve"><tspan
         y="-15.495665"
         x="1627.5361"
         id="tspan4074"
         sodipodi:role="line">Propeller blade (15 cm)</tspan></text>
    <path
       sodipodi:nodetypes="sssscsssccs"
       inkscape:connector-curvature="0"
       id="use3767"
       d="m 2011.53,-397.7954 c -0.1431,-13.61269 23.3563,-19.96677 56.5657,-26.00068 34.0664,-6.18944 104.8984,-12.54057 157.5552,-13.09398 71.9932,-0.75664 130.3567,-0.95161 192.2894,5.24488 36.0429,3.60629 130.2008,19.44371 192.5891,33.76692 0,0 -53.9152,-0.69226 -81.7582,0.85926 -29.9312,1.66787 -61.2686,4.69022 -91.4195,9.034 -7.5562,1.08851 -47.6146,8.33202 -70.5539,10.69831 -30.3704,3.13299 -58.7703,4.17276 -89.2988,4.70601 -95.9999,-0.59017 -151.6616,-1.39447 -243.7812,-15.56431 -14.7769,-2.2862 -22.1341,-4.54178 -22.1878,-9.65041 z"
       style="fill:#ebebeb;fill-opacity:1;stroke:#000000;stroke-width:1;stroke-linecap:butt;stroke-linejoin:miter;stroke-miterlimit:4;stroke-opacity:1;stroke-dasharray:none"
       inkscape:transform-center-x="299.99996"
       inkscape:transform-center-y="-7.0396595" />
    <text
       sodipodi:linespacing="125%"
       id="text4080"
       y="-307.83826"
       x="2312.9492"
       style="font-size:40px;font-style:italic;font-variant:normal;font-weight:normal;font-stretch:normal;text-indent:0;text-align:center;text-decoration:none;line-height:125%;letter-spacing:0px;word-spacing:0px;text-transform:none;direction:ltr;block-progression:tb;writing-mode:lr-tb;text-anchor:middle;color:#000000;fill:#000000;fill-opacity:1;fill-rule:nonzero;stroke:none;stroke-width:1px;marker:none;visibility:visible;display:inline;overflow:visible;enable-background:accumulate;font-family:Nimbus Roman No9 L;-inkscape-font-specification:Nimbus Roman No9 L Italic"
       xml:space="preserve"><tspan
         y="-307.83826"
         x="2312.9492"
         id="tspan4082"
         sodipodi:role="line">Airliner (8 m)</tspan></text>
    <path
       id="use4112"
       style="fill:#ebebeb;fill-opacity:1;stroke:#000000;stroke-width:1;stroke-linecap:butt;stroke-linejoin:miter;stroke-miterlimit:4;stroke-opacity:1;stroke-dasharray:none"
       d="m 2093.6174,-131.81651 c 126.6391,-4.1188 237.4896,-3.6764 340.9022,-0.9519 m 0,0 c 66.5814,0.7909 119.028,4.8739 176.0099,8.7194 -61.5721,4.8548 -123.0837,3.7599 -180.9326,5.5577 -108.8897,2.2452 -219.8835,2.3879 -333.672,-2.5836 -29.3809,-0.8285 -59.2591,-1.8485 -84.3955,-2.7047 17.3424,-4.8828 50.5889,-6.266 82.0668,-8.0384"
       inkscape:connector-curvature="0"
       sodipodi:nodetypes="cccccccc" />
    <text
       xml:space="preserve"
       style="font-size:40px;font-style:italic;font-variant:normal;font-weight:normal;font-stretch:normal;text-indent:0;text-align:center;text-decoration:none;line-height:125%;letter-spacing:0px;word-spacing:0px;text-transform:none;direction:ltr;block-progression:tb;writing-mode:lr-tb;text-anchor:middle;color:#000000;fill:#000000;fill-opacity:1;fill-rule:nonzero;stroke:none;stroke-width:1px;marker:none;visibility:visible;display:inline;overflow:visible;enable-background:accumulate;font-family:Nimbus Roman No9 L;-inkscape-font-specification:Nimbus Roman No9 L Italic"
       x="2311.5891"
       y="-15.495665"
       id="text4084"
       sodipodi:linespacing="125%"><tspan
         sodipodi:role="line"
         id="tspan4086"
         x="2311.5891"
         y="-15.495665">Supersonic interceptor (2 m)</tspan></text>
    <g
       id="g4045"
       transform="matrix(0.99354192,-0.05039908,0.05039908,0.99354192,722.55399,-423.58689)"
       inkscape:transform-center-x="299.96969"
       inkscape:transform-center-y="4.5267401">
      <path
         sodipodi:nodetypes="ccsc"
         inkscape:connector-curvature="0"
         id="path3997"
         d="m 1150.4865,1051.7303 c -2.163,3.6536 8.332,5.2071 7.459,0.6072 -2.9198,-2.0244 -5.442,-1.7307 -6.0432,-1.3958 z"
         style="fill:#ebebeb;fill-opacity:1;stroke:#000000;stroke-width:1.00520766;stroke-linecap:butt;stroke-linejoin:miter;stroke-miterlimit:4;stroke-opacity:1;stroke-dasharray:none" />
      <path
         sodipodi:nodetypes="cccc"
         inkscape:connector-curvature="0"
         id="path4035"
         d="m 804.22742,1029.4212 c -1.52128,0.09 -12.38288,2.6755 -14.00987,3.1111 -8.18949,2.192 -17.56172,8.1685 -26.54382,11.9313 -2.76478,1.1581 -7.25723,6.5964 -9.16575,8.0788"
         style="fill:none;stroke:#000000;stroke-width:1.00520766;stroke-linecap:butt;stroke-linejoin:miter;stroke-miterlimit:4;stroke-opacity:1;stroke-dasharray:none" />
      <path
         sodipodi:nodetypes="cccsccc"
         inkscape:connector-curvature="0"
         id="path4033"
         d="m 754.22487,1052.7449 c -1.39211,0.8905 0.64952,5.3612 0.16936,5.1645 -0.76728,0.4158 -2.49464,-1.6729 -3.87611,-4.0056 -1.462,-0.5758 -0.91271,-4.953 0.70126,-3.3689 l 0.97198,0.954 c 0.59609,0.8201 2.06634,0.677 2.59979,1.2105 0.13391,0.1339 -0.42443,0.171 -0.56628,0.045"
         style="fill:#ebebeb;fill-opacity:1;stroke:#000000;stroke-width:1.00520766;stroke-linecap:butt;stroke-linejoin:miter;stroke-miterlimit:4;stroke-opacity:1;stroke-dasharray:none" />
      <path
         sodipodi:nodetypes="ccc"
         inkscape:connector-curvature="0"
         id="path4031"
         d="m 750.05495,1050.985 c -2.14182,-1.0431 -6.31314,-6.8902 -8.58132,-7.4782 -8.08105,-7.8712 -17.07983,-20.8852 -24.36343,-27.0132"
         style="fill:none;stroke:#000000;stroke-width:1.00520766;stroke-linecap:butt;stroke-linejoin:miter;stroke-miterlimit:4;stroke-opacity:1;stroke-dasharray:none" />
      <path
         id="path4029"
         d="m 716.47011,1018.8191 c -1.12718,-0.8387 0.49649,1.451 -1.40226,2.0559 l -2.31258,-1.4992 c 0.32587,-1.4283 -1.03511,-2.6311 -0.40943,-4.4593 0.26027,-0.7606 3.08226,-2.7296 3.68491,-1.8491 0.56542,0.8261 0.39927,2.7636 1.07945,3.4262 z"
         style="fill:#ebebeb;fill-opacity:1;stroke:#000000;stroke-width:1.00520766;stroke-linecap:butt;stroke-linejoin:miter;stroke-miterlimit:4;stroke-opacity:1;stroke-dasharray:none"
         inkscape:connector-curvature="0" />
      <path
         sodipodi:nodetypes="csccscc"
         inkscape:connector-curvature="0"
         id="path4025"
         d="m 688.61643,1037.6557 c 0.41619,1.8242 -3.07065,4.404 -3.03886,2.2112 l 0.0367,-2.5314 0.52108,0.3263 c 0,0 0.55205,-0.7627 0.9678,-0.9245 0.41631,-0.162 1.33994,0.027 1.33994,0.027 z"
         style="fill:#ebebeb;fill-opacity:1;stroke:#000000;stroke-width:1.00520766;stroke-linecap:butt;stroke-linejoin:miter;stroke-miterlimit:4;stroke-opacity:1;stroke-dasharray:none" />
      <path
         sodipodi:nodetypes="ccccccssc"
         inkscape:connector-curvature="0"
         id="path4021"
         d="m 660.66512,1013.8908 c -1.09161,0.7975 -0.60551,2.4064 -1.5384,2.8607 l -2.56378,-0.8161 c 0,0 0.29779,-1.0605 0.16751,-1.2508 -0.13025,-0.1904 -0.91192,-1.6043 -0.87472,-1.849 0.0373,-0.2447 0.70721,-1.6043 1.1725,-1.7131 0.46524,-0.1083 2.103,-0.027 2.103,0.082 0,0.1088 2.33192,1.0722 2.27051,1.1964 z"
         style="fill:#ebebeb;fill-opacity:1;stroke:#000000;stroke-width:1.00520766;stroke-linecap:butt;stroke-linejoin:miter;stroke-miterlimit:4;stroke-opacity:1;stroke-dasharray:none" />
      <path
         sodipodi:nodetypes="sssscs"
         inkscape:connector-curvature="0"
         id="path4017"
         d="m 627.34463,1041.8857 c 0.1789,0.3498 -1.53877,3.4782 -2.52623,2.6251 -1.82011,-1.5724 -1.71251,-2.4555 -1.31055,-3.5616 0.23267,-0.6403 0.59981,-1.1827 1.43553,-1.3844 0.66801,-0.1612 0.9715,0.5276 1.41587,0.3941 z"
         style="fill:#ebebeb;fill-opacity:1;stroke:#000000;stroke-width:1.00520766;stroke-linecap:butt;stroke-linejoin:miter;stroke-miterlimit:4;stroke-opacity:1;stroke-dasharray:none" />
      <path
         id="path4013"
         d="m 565.66931,1020.9469 c 0,0 -2.6672,4.6475 -3.9279,5.2396 -1.26068,0.5923 -1.71932,0.098 -2.60546,-0.435 -0.88618,-0.5331 -2.22643,-1.5406 -2.45663,-2.8279 -0.23023,-1.2873 0.74439,-2.7191 0.89329,-3.1543 0.14888,-0.435 2.09138,-1.4857 3.20107,-2.8278 2.39218,-2.995 5.27303,-5.8023 6.55098,-1.849 -0.14892,0.6525 1.33994,4.2418 1.33994,4.2418 z"
         style="fill:#ebebeb;fill-opacity:1;stroke:#000000;stroke-width:1.00520766;stroke-linecap:butt;stroke-linejoin:miter;stroke-miterlimit:4;stroke-opacity:1;stroke-dasharray:none"
         inkscape:connector-curvature="0" />
      <path
         sodipodi:nodetypes="cc"
         inkscape:connector-curvature="0"
         id="path4011"
         d="m 568.6646,1019.3343 c 20.23762,8.9381 37.11478,10.7984 55.3463,20.7461"
         style="fill:none;stroke:#000000;stroke-width:1.00520766;stroke-linecap:butt;stroke-linejoin:miter;stroke-miterlimit:4;stroke-opacity:1;stroke-dasharray:none" />
      <path
         sodipodi:nodetypes="ccccccc"
         inkscape:connector-curvature="0"
         id="path4009"
         d="m 626.35925,1039.9589 c 0,0 2.26902,-1.373 3.86958,-2.8414 1.63069,-2.2568 3.78853,-3.5824 5.65761,-5.6558 l 3.79664,-2.7735 3.27546,-2.3385 c 2.17668,-2.2585 6.01642,-3.5291 8.63535,-5.9277 0.14891,-0.3807 4.96905,-4.4866 4.96905,-4.4866"
         style="fill:none;stroke:#000000;stroke-width:1.00520766;stroke-linecap:butt;stroke-linejoin:miter;stroke-miterlimit:4;stroke-opacity:1;stroke-dasharray:none" />
      <path
         sodipodi:nodetypes="cccccc"
         inkscape:connector-curvature="0"
         id="path4007"
         d="m 660.66512,1013.8908 c 0.11172,0.054 6.11511,2.0179 6.11511,2.0179 l 4.8388,3.2629 3.79659,3.3173 4.46657,4.5139 5.73208,10.3327"
         style="fill:none;stroke:#000000;stroke-width:1.00520766;stroke-linecap:butt;stroke-linejoin:miter;stroke-miterlimit:4;stroke-opacity:1;stroke-dasharray:none" />
      <path
         sodipodi:nodetypes="cc"
         inkscape:connector-curvature="0"
         id="path4005"
         d="m 688.44309,1036.7643 c 4.73764,-5.2648 16.3951,-13.211 24.31218,-17.3885"
         style="fill:none;stroke:#000000;stroke-width:1.00520766;stroke-linecap:butt;stroke-linejoin:miter;stroke-miterlimit:4;stroke-opacity:1;stroke-dasharray:none" />
      <path
         sodipodi:nodetypes="ccccc"
         inkscape:connector-curvature="0"
         id="path4043"
         d="m 1150.4865,1051.7303 -6.6151,-0.8691 c -10.9364,-3.2414 -44.9855,-5.711 -44.9855,-5.711 -90.5278,-8.1847 -204.51335,8.6976 -281.28362,-10.1893 -2.27963,-0.5608 -7.42949,-4.0651 -9.61753,-4.6853"
         style="fill:none;stroke:#000000;stroke-width:1.00520766;stroke-linecap:butt;stroke-linejoin:miter;stroke-miterlimit:4;stroke-opacity:1;stroke-dasharray:none" />
      <path
         id="path4070"
         d="m 803.63268,1024.9175 c -0.49428,1.7956 -0.22567,3.3912 0.59474,4.5037 2.38669,0.8946 1.34297,-1.3348 1.86025,0.4533 0.51246,0.598 1.332,0.3119 1.89708,0.4011 8.44247,-5.1848 -3.01047,-12.864 -4.35207,-5.3581 z"
         style="fill:#ebebeb;fill-opacity:1;stroke:#000000;stroke-width:1.00520766;stroke-linecap:butt;stroke-linejoin:miter;stroke-miterlimit:4;stroke-opacity:1;stroke-dasharray:none"
         inkscape:connector-curvature="0" />
    </g>
    <text
       xml:space="preserve"
       style="font-size:40px;font-style:italic;font-variant:normal;font-weight:normal;font-stretch:normal;text-indent:0;text-align:center;text-decoration:none;line-height:125%;letter-spacing:0px;word-spacing:0px;text-transform:none;direction:ltr;block-progression:tb;writing-mode:lr-tb;text-anchor:middle;color:#000000;fill:#000000;fill-opacity:1;fill-rule:nonzero;stroke:none;stroke-width:1px;marker:none;visibility:visible;display:inline;overflow:visible;enable-background:accumulate;font-family:Nimbus Roman No9 L;-inkscape-font-specification:Nimbus Roman No9 L Italic"
       x="1627.6962"
       y="685.54309"
       id="text4076"
       sodipodi:linespacing="125%"><tspan
         sodipodi:role="line"
         id="tspan4078"
         x="1627.6962"
         y="685.54309">Dragonfly wing (12 mm)</tspan></text>
    <text
       xml:space="preserve"
       style="font-size:40px;font-style:italic;font-variant:normal;font-weight:normal;font-stretch:normal;text-indent:0;text-align:center;text-decoration:none;line-height:125%;letter-spacing:0px;word-spacing:0px;text-transform:none;direction:ltr;block-progression:tb;writing-mode:lr-tb;text-anchor:middle;color:#000000;fill:#000000;fill-opacity:1;fill-rule:nonzero;stroke:none;stroke-width:1px;marker:none;visibility:visible;display:inline;overflow:visible;enable-background:accumulate;font-family:Nimbus Roman No9 L;-inkscape-font-specification:Nimbus Roman No9 L Italic"
       x="1627.6962"
       y="982.42859"
       id="text3984"
       sodipodi:linespacing="125%"><tspan
         sodipodi:role="line"
         id="tspan3986"
         x="1627.6962"
         y="982.42859">Dolphin flipper fin (10 cm)</tspan></text>
    <path
       style="fill:#ebebeb;fill-opacity:1;stroke:#000000;stroke-width:0.99999928px;stroke-linecap:butt;stroke-linejoin:miter;stroke-opacity:1"
       d="m 1474.6138,805.63558 c 63.0704,-0.79254 133.9514,9.66618 448.3747,60.51595 3.1469,0.50894 4.4232,7.06121 1.526,8.39341 -5.538,2.54651 -274.8343,33.85709 -452.2027,40.75666 -50.9034,1.98012 -145.2343,-8.3259 -145.1753,-45.30765 0.066,-41.71823 93.4364,-63.67932 147.4773,-64.35837 z"
       id="path3095"
       inkscape:connector-curvature="0"
       sodipodi:nodetypes="ssssss"
       inkscape:transform-center-x="299.98881"
       inkscape:transform-center-y="-10.047184" />
    <text
       sodipodi:linespacing="125%"
       id="text3081"
       y="392.78748"
       x="1627.6962"
       style="font-size:40px;font-style:italic;font-variant:normal;font-weight:normal;font-stretch:normal;text-indent:0;text-align:center;text-decoration:none;line-height:125%;letter-spacing:0px;word-spacing:0px;text-transform:none;direction:ltr;block-progression:tb;writing-mode:lr-tb;text-anchor:middle;color:#000000;fill:#000000;fill-opacity:1;fill-rule:nonzero;stroke:none;stroke-width:1px;marker:none;visibility:visible;display:inline;overflow:visible;enable-background:accumulate;font-family:Nimbus Roman No9 L;-inkscape-font-specification:Nimbus Roman No9 L Italic"
       xml:space="preserve"><tspan
         y="392.78748"
         x="1627.6962"
         id="tspan3083"
         sodipodi:role="line">Blackbird (6 cm)</tspan></text>
    <path
       inkscape:transform-center-y="-58.313191"
       inkscape:transform-center-x="-283.64043"
       sodipodi:nodetypes="ssssss"
       inkscape:connector-curvature="0"
       id="path3085"
       d="m 1431.3162,225.02477 c 65.901,-14.92868 307.68,-11.66964 491.2902,105.50605 2.879,1.83727 3.5301,5.1074 3.5301,5.1074 -5.2332,3.90701 -315.2872,-146.35931 -491.2872,-14.80862 -43.7174,32.67634 -98.5023,37.59089 -106.7039,-1.18495 -9.2519,-43.74206 46.7046,-81.82851 103.1708,-94.61988 z"
       style="fill:#ebebeb;fill-opacity:1;stroke:#000000;stroke-width:0.99999928px;stroke-linecap:butt;stroke-linejoin:miter;stroke-opacity:1" />
    <path
       inkscape:connector-curvature="0"
       inkscape:export-ydpi="122.01"
       inkscape:export-xdpi="122.01"
       inkscape:export-filename="/home/olivier/1&amp;0s/Desktop/airf.png"
       sodipodi:nodetypes="csscc"
       d="m 2609.2113,649.50523 c -224.8412,-58.8238 -469.1928,-121.2775 -562.7197,-2.2394 -17.4594,22.2217 -70.3251,-68.7558 2.2972,-123.2856 73.7581,-55.3827 235.3571,-78.5417 560.4993,122.4813 1.4954,2.6137 1.8355,1.9678 -0.077,3.0437 z"
       style="fill:#ebebeb;fill-opacity:1;fill-rule:evenodd;stroke:#000000;stroke-width:1;stroke-linecap:butt;stroke-linejoin:miter;stroke-miterlimit:4;stroke-opacity:1;stroke-dasharray:none"
       id="path1938"
       inkscape:transform-center-x="-307.29528"
       inkscape:transform-center-y="49.427586" />
    <text
       sodipodi:linespacing="125%"
       id="text4088"
       y="685.54309"
       x="2310.749"
       style="font-size:40px;font-style:italic;font-variant:normal;font-weight:normal;font-stretch:normal;text-indent:0;text-align:center;text-decoration:none;line-height:125%;letter-spacing:0px;word-spacing:0px;text-transform:none;direction:ltr;block-progression:tb;writing-mode:lr-tb;text-anchor:middle;color:#000000;fill:#000000;fill-opacity:1;fill-rule:nonzero;stroke:none;stroke-width:1px;marker:none;visibility:visible;display:inline;overflow:visible;enable-background:accumulate;font-family:Nimbus Roman No9 L;-inkscape-font-specification:Nimbus Roman No9 L Italic"
       xml:space="preserve"><tspan
         y="685.54309"
         x="2310.749"
         id="tspan4090"
         sodipodi:role="line">Turbine blade (8 cm)</tspan></text>
    <path
       style="fill:#ebebeb;fill-opacity:1;stroke:#000000;stroke-width:0.99999994;stroke-linecap:butt;stroke-linejoin:miter;stroke-miterlimit:4;stroke-opacity:1;stroke-dasharray:none"
       d="m 2011.5294,296.24524 c 166.8952,-53.00411 411.8959,-48.67795 599,0.38945 -208.2789,-17.83714 -405.6673,-17.77566 -599,-0.38945"
       id="path3949"
       inkscape:connector-curvature="0"
       sodipodi:nodetypes="ccc"
       inkscape:transform-center-x="300.01292"
       inkscape:transform-center-y="-19.732283" />
    <text
       xml:space="preserve"
       style="font-size:40px;font-style:italic;font-variant:normal;font-weight:normal;font-stretch:normal;text-indent:0;text-align:center;text-decoration:none;line-height:125%;letter-spacing:0px;word-spacing:0px;text-transform:none;direction:ltr;block-progression:tb;writing-mode:lr-tb;text-anchor:middle;color:#000000;fill:#000000;fill-opacity:1;fill-rule:nonzero;stroke:none;stroke-width:1px;marker:none;visibility:visible;display:inline;overflow:visible;enable-background:accumulate;font-family:Nimbus Roman No9 L;-inkscape-font-specification:Nimbus Roman No9 L Italic"
       x="2310.749"
       y="399.25562"
       id="text4092"
       sodipodi:linespacing="125%"><tspan
         sodipodi:role="line"
         id="tspan4094"
         x="2310.749"
         y="399.25562">Turbofan fan blade (80 cm)</tspan></text>
    <g
       inkscape:transform-center-y="-30.899743"
       inkscape:transform-center-x="-297.7588"
       transform="matrix(1.1896619,0.04650223,-0.04650223,1.1896619,343.7177,206.60753)"
       id="g3117">
      <path
         inkscape:transform-center-x="9.0984123"
         sodipodi:nodetypes="cczc"
         inkscape:connector-curvature="0"
         id="path3087"
         d="m 1440.8527,493.14769 1.7162,1.49008 c -4.1781,10.45489 -10.3205,26.48732 -18.3684,19.44583 -8.0482,-7.04124 6.2934,-15.17691 16.6522,-20.93591 z"
         style="fill:#ebebeb;fill-opacity:1;stroke:#000000;stroke-width:0.83993357px;stroke-linecap:butt;stroke-linejoin:miter;stroke-opacity:1"
         inkscape:transform-center-y="10.37493" />
      <path
         transform="translate(-337.7127,302.51226)"
         style="fill:none;stroke:#000000;stroke-width:0.83993357px;stroke-linecap:butt;stroke-linejoin:miter;stroke-opacity:1"
         d="m 1779.3403,191.45162 c 98.7881,-94.074541 483.1673,0.16388 483.1058,0"
         id="path3089"
         inkscape:connector-curvature="0"
         sodipodi:nodetypes="cc" />
    </g>
    <text
       sodipodi:linespacing="125%"
       id="text3081-3"
       y="962.70654"
       x="2311.5891"
       style="font-size:40px;font-style:italic;font-variant:normal;font-weight:normal;font-stretch:normal;text-indent:0;text-align:center;text-decoration:none;line-height:125%;letter-spacing:0px;word-spacing:0px;text-transform:none;direction:ltr;block-progression:tb;writing-mode:lr-tb;text-anchor:middle;color:#000000;fill:#000000;fill-opacity:1;fill-rule:nonzero;stroke:none;stroke-width:1px;marker:none;visibility:visible;display:inline;overflow:visible;enable-background:accumulate;font-family:Nimbus Roman No9 L;-inkscape-font-specification:Nimbus Roman No9 L Italic"
       xml:space="preserve"><tspan
         y="962.70654"
         x="2311.5891"
         id="tspan3083-5"
         sodipodi:role="line">Sailboat (3 m)</tspan></text>
    <path
       style="fill:none;stroke:#000000;stroke-width:1;stroke-linecap:butt;stroke-linejoin:miter;stroke-miterlimit:4;stroke-opacity:1;stroke-dasharray:none"
       d="m 1308.8862,118.9491 1319.886,0"
       id="path3142"
       inkscape:path-effect="#path-effect3144"
       inkscape:original-d="m 1308.8862,118.9491 1319.886,0"
       inkscape:connector-curvature="0" />
  </g>
</svg>
