<?xml version="1.0" encoding="utf-8"?>
<!-- Generator: Adobe Illustrator 22.0.1, SVG Export Plug-In . SVG Version: 6.00 Build 0)  -->
<svg version="1.2" baseProfile="tiny" id="Calque_1"
	 xmlns="http://www.w3.org/2000/svg" xmlns:xlink="http://www.w3.org/1999/xlink" x="0px" y="0px" viewBox="0 0 100 100"
	 xml:space="preserve">
<path fill="none" stroke="#000000" stroke-miterlimit="10" d="M26.8-25.4c0-2,0-4,0-5.9c0-1.4,0.2-1-0.6-1.4c-0.8-0.3-2.6,0-3.5,0
	c-1.9,0-3.7,0-5.6,0c-10,0-20,0-29.9,0c-2.6,0-5.1,0-7.7,0c8.4,9,16.8,18.1,25.2,27.1c1,1.1,2.3,2.2,3.1,3.5
	c1.8,2.7,0.3,5.2-1.6,7.2c-4.7,4.9-9.3,9.7-14,14.6c-4.1,4.3-8.3,8.6-12.4,12.9c14.8,0,29.5,0,44.3,0c0.5,0,2.4,0.3,2.7,0
	c0.5-0.4,0.1-3.6,0.1-4.4c0-2.7,2.2-4.8,4.8-4.8c2.7,0,4.8,2.2,4.8,4.8c0,3.8,1.5,11.2-2.5,13.5c-2.3,1.3-6.1,0.6-8.5,0.6
	c-12.9,0-25.8,0-38.7,0c-5.8,0-11.5,0.1-17.3,0c-3.7,0-7.5-2.7-5.6-6.9c0.5-1,1.3-1.7,2-2.5c7.1-7.4,14.2-14.7,21.3-22.1
	c2.9-3,5.8-6.1,8.8-9.1c1.5-1.6,0.9-1.4-0.6-3c-7.1-7.6-14.2-15.2-21.2-22.8c-2.8-3-5.6-6-8.4-9.1c-0.9-0.9-1.7-1.8-2.1-3.1
	c-0.8-3.3,1.7-5.8,4.8-6c7.5-0.5,15.2,0,22.7,0c11,0,22,0,33,0c2.4,0,5-0.2,7.4,0c6,0.4,4.9,6.9,4.9,11.2c0,1.9,0,3.9,0,5.8
	c0,2.7-2.2,4.8-4.8,4.8C29-20.5,26.8-22.7,26.8-25.4z"/>
</svg>
