<?xml version="1.0" encoding="utf-8"?>
<!-- Generator: Adobe Illustrator 22.0.1, SVG Export Plug-In . SVG Version: 6.00 Build 0)  -->
<svg version="1.2" baseProfile="tiny" id="Calque_1"
	 xmlns="http://www.w3.org/2000/svg" xmlns:xlink="http://www.w3.org/1999/xlink" x="0px" y="0px" viewBox="0 0 100 100"
	 xml:space="preserve">
<path fill="none" stroke="#000000" stroke-width="1" d="M-32.6-9.7c11-2.5,23.5-1,34.4,0.7c8.3,1.3,16.5,3.2,24.4,6
	c4.2,1.4,8.2,3.1,12.2,5c2.2,1,4.3,2.1,6.3,3.3c1.5,0.8,4.6,2,5.2,3.6c-0.4,0.3-2.8-0.9-3.2-1.1c-2.5-1-5.1-1.9-7.7-2.8
	c-8-2.8-16.3-5-24.7-6.4C4.7-3-5.4-3.4-15-1.2c-4.8,1.1-9.5,2.8-13.8,5.4c-4.6,2.8-8.9,6.6-14.7,6.5c-5.8-0.1-8.1-5.6-5.3-10.4
	C-45.6-5.3-38.5-8.3-32.6-9.7z"/>
</svg>
