<?xml version="1.0" encoding="utf-8"?>
<!-- Generator: Adobe Illustrator 22.0.1, SVG Export Plug-In . SVG Version: 6.00 Build 0)  -->
<svg version="1.1" id="Calque_1" xmlns="http://www.w3.org/2000/svg" xmlns:xlink="http://www.w3.org/1999/xlink" x="0px" y="0px"
	 viewBox="0 0 100 100" style="enable-background:new 0 0 100 100;" xml:space="preserve">
<style type="text/css">
	.st0{fill:none;stroke:#000000;}
</style>
<path class="st0" d="M92.4,53.4c2.5,0.5,5,0.8,7.5,1.1c0.2,1.6-2.4,1-3.5,1c-1.9,0-3.7,0.1-5.6,0.1c-4.5,0.1-8.9,0.2-13.4,0.3
	c-8.5,0.2-17,0.5-25.5,0.7c-8.2,0.2-16.3,0.5-24.5,0.7c-4.1,0.1-8.2,0.3-12.3,0.4c-2.2,0.1-4.5,0.1-6.7,0.2c-1.9,0.1-4,0.5-5.8-0.1
	C-3.2,56,2.2,49.9,4.9,48c3.4-2.4,7.5-3.7,11.5-4.5c8.9-2,18.3-1.8,27.3-0.8C60.3,44.7,76.1,50.2,92.4,53.4z"/>
</svg>
